<svg xmlns="http://www.w3.org/2000/svg" xmlns:xlink="http://www.w3.org/1999/xlink" version="1.1" x="0px" y="0px" viewBox="0 0 100 125" style="enable-background:new 0 0 100 100;" xml:space="preserve"><path fill="#ffffff" d="M50,95C25.2,95,5,74.8,5,50S25.2,5,50,5s45,20.2,45,45S74.8,95,50,95z M50,10.6c-21.7,0-39.4,17.7-39.4,39.4  S28.3,89.4,50,89.4S89.4,71.7,89.4,50S71.7,10.6,50,10.6z M65.8,48.4L45,31.7c-1.4-1.1-3.4-0.1-3.4,1.6v33.3c0,1.8,2,2.7,3.4,1.6  l20.8-16.6C66.9,50.8,66.9,49.2,65.8,48.4z"/></svg>